Coordinates
version=1
nRows=16
nColumns=40
inDegrees=yes

Units are S.I. units (second, meters, Newtons, ...)
Angles are in degrees.

endheader
time	pelvis_tilt	pelvis_list	pelvis_rotation	pelvis_tx	pelvis_ty	pelvis_tz	hip_flexion_r	hip_adduction_r	hip_rotation_r	knee_angle_r	knee_angle_r_beta	ankle_angle_r	subtalar_angle_r	mtp_angle_r	hip_flexion_l	hip_adduction_l	hip_rotation_l	knee_angle_l	knee_angle_l_beta	ankle_angle_l	subtalar_angle_l	mtp_angle_l	lumbar_extension	lumbar_bending	lumbar_rotation	arm_flex_r	arm_add_r	arm_rot_r	elbow_flex_r	pro_sup_r	wrist_flex_r	wrist_dev_r	arm_flex_l	arm_add_l	arm_rot_l	elbow_flex_l	pro_sup_l	wrist_flex_l	wrist_dev_l
      0.70000000	     -3.75249443	     -2.81863770	     -2.10045662	     -1.00635790	      0.88731218	      1.48944728	     15.44454880	      1.54398310	    -15.56240601	    -23.55756093	     -0.41115700	      7.71951351	     -1.41571098	      5.75002476	     21.65903834	      7.14589611	      6.76616242	    -67.55215702	     -1.17900756	      2.39724843	     18.89970647	     19.78942931	     -2.85025296	      4.82647905	     -2.07348779	     -0.47720927	    -10.32571418	    -19.44036003	     25.00401459	     89.95437384	      0.00000000	      0.00000000	     -1.65825825	      8.67602431	     15.87562672	     44.84384377	     89.95437384	      0.00000000	      0.00000000
      0.71000000	     -3.77417921	     -2.83475369	     -2.22989300	     -0.99835039	      0.88796390	      1.49128629	     14.64665857	      1.72218907	    -15.53808109	    -23.12366911	     -0.40358416	      8.16619427	     -0.85887100	      5.47902408	     22.75048167	      7.09765457	      6.84899850	    -67.37119666	     -1.17584920	      3.97119018	     18.85071940	     19.70541872	     -2.88054517	      4.93593382	     -1.58713333	     -0.32642091	    -10.49821641	    -19.01895208	     26.24382446	     89.95437384	      0.00000000	      0.00000000	     -1.93666032	      8.40235134	     15.91004901	     43.63570910	     89.95437384	      0.00000000	      0.00000000
      0.72000000	     -3.80439548	     -2.72846775	     -2.39680575	     -0.99026390	      0.88848238	      1.49333338	     13.95058761	      1.73276183	    -15.77886485	    -22.88067664	     -0.39934314	      8.44021328	     -0.70171460	      5.32695278	     23.80911553	      7.11846341	      7.25404115	    -66.94805794	     -1.16846404	      4.57709968	     18.85999956	     19.56062887	     -2.86307026	      4.84957298	     -1.27954642	      0.12109603	    -10.52204072	    -18.81509960	     27.06728432	     89.95437384	      0.00000000	      0.00000000	     -2.56496108	      8.30368185	     15.88854256	     42.86294765	     89.95437384	      0.00000000	      0.00000000
      0.73000000	     -3.50243391	     -2.67792868	     -2.56299021	     -0.98187095	      0.88945157	      1.49513385	     12.76693027	      1.75937410	    -15.95780051	    -22.41972594	     -0.39129803	      8.83163709	      0.34270704	      4.77751904	     24.34140574	      7.10914357	      7.61757280	    -66.23844263	     -1.15607892	      5.74637958	     18.82315512	     20.37775791	     -3.20043101	      4.83678881	     -0.75121715	      0.16036174	    -10.66344485	    -18.42366691	     28.52492018	     89.95437384	      0.00000000	      0.00000000	     -2.86101541	      8.16356210	     15.72802545	     41.71357101	     89.95437384	      0.00000000	      0.00000000
      0.74000000	     -3.58126154	     -2.60248523	     -2.65871905	     -0.97431873	      0.88969734	      1.49690426	     12.32444006	      1.75823291	    -16.07349924	    -22.47581455	     -0.39227697	      8.88503869	      0.29963505	      4.66763105	     25.45035710	      7.09631971	      7.86746314	    -65.43469987	     -1.14205096	      5.95523680	     18.69907672	     20.07942736	     -3.21708510	      4.77208069	     -0.62220902	      0.76865396	    -10.63557563	    -18.33511542	     29.30649791	     89.95437384	      0.00000000	      0.00000000	     -3.54604652	      8.13115061	     15.68349871	     41.14700316	     89.95437384	      0.00000000	      0.00000000
      0.75000000	     -3.55472645	     -2.47600558	     -2.76476417	     -0.96586518	      0.89012678	      1.49833860	     11.45158330	      1.76664238	    -15.90254378	    -22.04074426	     -0.38468356	      9.35176300	      0.58493682	      4.42495783	     26.17340590	      6.93075202	      8.15851005	    -64.28011259	     -1.12189961	      7.14122389	     18.85565713	     20.03695207	     -3.20053873	      4.71534359	     -0.21790731	      0.82021879	    -10.73017277	    -18.17839063	     30.59711188	     89.95437384	      0.00000000	      0.00000000	     -3.74701858	      7.87586325	     15.80713835	     39.62950013	     89.95437384	      0.00000000	      0.00000000
      0.76000000	     -3.40876069	     -2.39284336	     -2.89391823	     -0.95770724	      0.89055073	      1.49991917	     10.57566991	      1.77889356	    -15.85227720	    -21.80383886	     -0.38054878	      9.61576690	      0.80372777	      4.17524047	     26.76700957	      6.85668723	      8.44231248	    -62.93014918	     -1.09833830	      7.78319068	     18.85341644	     20.03561711	     -3.40762980	      4.65615322	      0.09441441	      1.08741888	    -10.76395934	    -18.06187975	     31.77314869	     89.95437384	      0.00000000	      0.00000000	     -4.19552747	      7.77580688	     15.78294516	     38.68949867	     89.95437384	      0.00000000	      0.00000000
      0.77000000	     -3.50844988	     -2.42070761	     -3.01693701	     -0.94954596	      0.89041347	      1.50152242	     10.03015063	      1.89243673	    -16.03130207	    -21.69276910	     -0.37861024	      9.85071321	      0.81998297	      4.04689170	     27.64146732	      6.94037247	      8.67951771	    -61.55768667	     -1.07438431	      8.14047072	     18.88018445	     19.88226525	     -3.30933776	      4.71236483	      0.28164531	      1.51231629	    -10.77515539	    -17.97617401	     32.56471428	     89.95437384	      0.00000000	      0.00000000	     -4.92692742	      7.71457533	     15.72836435	     38.09231654	     89.95437384	      0.00000000	      0.00000000
      0.78000000	     -3.25101264	     -2.36885919	     -3.12645910	     -0.94118934	      0.89088122	      1.50285204	      8.91760014	      1.93220773	    -15.91215491	    -21.26766759	     -0.37119082	     10.25038176	      1.29504982	      3.76035173	     27.93741149	      6.80756485	      8.85994386	    -59.81019000	     -1.04388474	      9.01054028	     18.85327649	     19.91604142	     -3.62877528	      4.68649377	      0.62719663	      1.69065120	    -10.86325367	    -17.77475118	     33.80583549	     89.95437384	      0.00000000	      0.00000000	     -5.15944403	      7.56800805	     15.74918417	     36.83636956	     89.95437384	      0.00000000	      0.00000000
      0.79000000	     -3.40161289	     -2.49809833	     -3.19887712	     -0.93332043	      0.89051030	      1.50441357	      8.51233801	      2.13544293	    -16.12035888	    -21.29606259	     -0.37168641	     10.36779012	      1.27713055	      3.64455874	     28.83134903	      7.04093401	      9.09343798	    -58.15374445	     -1.01497431	      9.15686353	     18.85076660	     19.73618028	     -3.53566003	      4.82321595	      0.70348006	      2.19029070	    -10.83738011	    -17.65970087	     34.54157330	     89.95437384	      0.00000000	      0.00000000	     -5.89547997	      7.52894456	     15.67970049	     36.37905642	     89.95437384	      0.00000000	      0.00000000
      0.80000000	     -3.15975596	     -2.38914531	     -3.29223271	     -0.92488303	      0.89082501	      1.50545538	      7.39681014	      2.10919176	    -15.98561540	    -20.79564170	     -0.36295242	     10.76791984	      1.72734638	      3.34016348	     29.00145186	      6.80518196	      9.22204771	    -56.04452995	     -0.97816158	      9.51568166	     18.80972170	     19.79428479	     -3.82024454	      4.72759606	      1.00538458	      2.36224933	    -10.97705125	    -17.31881900	     35.71108407	     89.95437384	      0.00000000	      0.00000000	     -6.13464802	      7.38886173	     15.72277078	     35.19143214	     89.95437384	      0.00000000	      0.00000000
      0.81000000	     -2.82822688	     -2.36552150	     -3.41101046	     -0.91645340	      0.89110039	      1.50676342	      6.30730907	      2.09433224	    -16.24954238	    -20.59437443	     -0.35943964	     10.89761115	      2.23176137	      2.83830339	     29.03110497	      6.83776469	      9.63776116	    -53.85186841	     -0.93989241	      9.74269391	     18.75470105	     20.01117041	     -4.24069980	      4.65941824	      1.21100995	      2.77600273	    -11.00706415	    -17.06328409	     36.55173146	     89.95437384	      0.00000000	      0.00000000	     -6.70460012	      7.34579636	     15.56036485	     34.67313242	     89.95437384	      0.00000000	      0.00000000
      0.82000000	     -3.12923049	     -2.53009822	     -3.42287397	     -0.90853323	      0.89022944	      1.50800614	      6.04217495	      2.36615389	    -16.45638045	    -20.55538865	     -0.35875921	     11.08919633	      2.16769733	      2.72224572	     29.92460910	      7.07874894	      9.83195187	    -51.82340212	     -0.90448900	      9.84056661	     18.69768681	     19.86701592	     -3.94620510	      4.83393552	      1.25019969	      3.19234991	    -11.00246188	    -16.87190502	     37.25645663	     89.95437384	      0.00000000	      0.00000000	     -7.36837136	      7.29900013	     15.45932741	     34.19813907	     89.95437384	      0.00000000	      0.00000000
      0.83000000	     -3.39043207	     -2.66716853	     -3.42858368	     -0.90059242	      0.88939936	      1.50905423	      5.71728761	      2.60545357	    -16.51169127	    -20.52096674	     -0.35815844	     11.25911649	      2.17133606	      2.60521735	     30.70566854	      7.24168478	     10.02913164	    -49.65824595	     -0.86669989	      9.88903084	     18.58357244	     19.71531418	     -3.71642797	      4.97788058	      1.27791866	      3.56127684	    -11.04249670	    -16.60170906	     37.99582386	     89.95437384	      0.00000000	      0.00000000	     -7.94573592	      7.22463037	     15.35471539	     33.64410792	     89.95437384	      0.00000000	      0.00000000
      0.84000000	     -3.19915410	     -2.34675411	     -3.51917766	     -0.89233176	      0.88937702	      1.50961998	      4.79760556	      2.29853887	    -16.30507890	    -20.22634302	     -0.35301628	     11.62398918	      2.38153892	      2.27112736	     30.64944642	      6.80117457	     10.37112115	    -46.93343756	     -0.81914301	      9.56447648	     18.50966847	     19.68585987	     -3.98361800	      4.61670130	      1.53842640	      3.77507680	    -11.23937372	    -16.02488040	     38.95578164	     89.95437384	      0.00000000	      0.00000000	     -8.16413451	      7.14864745	     15.20655354	     32.73499946	     89.95437384	      0.00000000	      0.00000000
      0.85000000	     -3.25784969	     -2.28185884	     -3.63657337	     -0.88446180	      0.88891169	      1.51042914	      4.34094303	      2.19217773	    -16.50651475	    -20.32894626	     -0.35480705	     11.68963838	      2.80403015	      1.62564879	     30.90332083	      6.74400255	     10.76561573	    -44.22526953	     -0.77187657	      9.25626784	     18.31847465	     19.40570040	     -4.02759867	      4.52039484	      1.66548113	      4.20539477	    -11.28872330	    -15.69901008	     39.62091593	     89.95437384	      0.00000000	      0.00000000	     -8.54275693	      7.06325686	     15.19806284	     32.09582739	     89.95437384	      0.00000000	      0.00000000
